<svg width="96" height="169" viewBox="0 0 96 169" fill="none" xmlns="http://www.w3.org/2000/svg">
<g filter="url(#filter0_b_1501_4)">
<path d="M69.2833 77.1955L34.0258 66.8794C29.945 65.7042 27.1048 61.8846 27.1048 57.6406C27.1048 52.3194 31.4141 48.0101 36.7354 48.0101H58.3796C62.3624 48.0101 66.2799 49.218 69.5445 51.4379C71.5359 52.7764 74.2129 52.4499 75.9104 50.785L87.2712 39.6854C89.5891 37.4328 89.2626 33.6785 86.6836 31.6871C82.795 28.6398 78.4357 26.2483 73.8046 24.5915C65.6484 21.6737 58.4449 14.8857 58.4449 6.22334C58.4449 3.3505 56.0944 1 53.2215 1H42.7749C39.902 1 37.5515 3.3505 37.5515 6.22334V21.0772C37.5515 21.528 37.1861 21.8934 36.7354 21.8934C15.9399 21.8934 -0.774772 39.7507 1.15134 60.9379C2.52246 75.9876 14.0138 88.2298 28.5086 92.4738L61.9706 102.268C66.0514 103.475 68.8916 107.262 68.8916 111.506C68.8916 116.828 64.5823 121.137 59.261 121.137H37.6168C33.634 121.137 29.7165 119.929 26.4519 117.709C24.4605 116.371 21.7835 116.697 20.086 118.362L8.72519 129.462C6.40733 131.714 6.73379 135.468 9.31281 137.46C13.2014 140.507 17.5607 142.899 22.1918 144.555C30.348 147.473 37.5515 154.261 37.5515 162.924C37.5515 165.796 39.902 168.147 42.7749 168.147H53.2215C56.0944 168.147 58.4449 165.796 58.4449 162.924C58.4449 154.185 65.7198 147.354 73.7092 143.813C82.5093 139.912 89.683 132.815 92.9516 123.455C99.9705 103.345 88.1853 82.7127 69.2833 77.1955Z" fill="url(#paint0_linear_1501_4)" fill-opacity="0.4"/>
<path d="M69.2833 77.1955L34.0258 66.8794C29.945 65.7042 27.1048 61.8846 27.1048 57.6406C27.1048 52.3194 31.4141 48.0101 36.7354 48.0101H58.3796C62.3624 48.0101 66.2799 49.218 69.5445 51.4379C71.5359 52.7764 74.2129 52.4499 75.9104 50.785L87.2712 39.6854C89.5891 37.4328 89.2626 33.6785 86.6836 31.6871C82.795 28.6398 78.4357 26.2483 73.8046 24.5915C65.6484 21.6737 58.4449 14.8857 58.4449 6.22334C58.4449 3.3505 56.0944 1 53.2215 1H42.7749C39.902 1 37.5515 3.3505 37.5515 6.22334V21.0772C37.5515 21.528 37.1861 21.8934 36.7354 21.8934C15.9399 21.8934 -0.774772 39.7507 1.15134 60.9379C2.52246 75.9876 14.0138 88.2298 28.5086 92.4738L61.9706 102.268C66.0514 103.475 68.8916 107.262 68.8916 111.506C68.8916 116.828 64.5823 121.137 59.261 121.137H37.6168C33.634 121.137 29.7165 119.929 26.4519 117.709C24.4605 116.371 21.7835 116.697 20.086 118.362L8.72519 129.462C6.40733 131.714 6.73379 135.468 9.31281 137.46C13.2014 140.507 17.5607 142.899 22.1918 144.555C30.348 147.473 37.5515 154.261 37.5515 162.924C37.5515 165.796 39.902 168.147 42.7749 168.147H53.2215C56.0944 168.147 58.4449 165.796 58.4449 162.924C58.4449 154.185 65.7198 147.354 73.7092 143.813C82.5093 139.912 89.683 132.815 92.9516 123.455C99.9705 103.345 88.1853 82.7127 69.2833 77.1955Z" stroke="url(#paint1_linear_1501_4)" stroke-width="1.5"/>
</g>
<defs>
<filter id="filter0_b_1501_4" x="-19.75" y="-19.75" width="135.5" height="208.647" filterUnits="userSpaceOnUse" color-interpolation-filters="sRGB">
<feFlood flood-opacity="0" result="BackgroundImageFix"/>
<feGaussianBlur in="BackgroundImageFix" stdDeviation="10"/>
<feComposite in2="SourceAlpha" operator="in" result="effect1_backgroundBlur_1501_4"/>
<feBlend mode="normal" in="SourceGraphic" in2="effect1_backgroundBlur_1501_4" result="shape"/>
</filter>
<linearGradient id="paint0_linear_1501_4" x1="55.8324" y1="5.12593" x2="46.3945" y2="114.83" gradientUnits="userSpaceOnUse">
<stop stop-color="white"/>
<stop offset="1" stop-color="white" stop-opacity="0"/>
</linearGradient>
<linearGradient id="paint1_linear_1501_4" x1="55.7347" y1="0.742371" x2="108.618" y2="135.426" gradientUnits="userSpaceOnUse">
<stop stop-color="white"/>
<stop offset="1" stop-color="white" stop-opacity="0"/>
</linearGradient>
</defs>
</svg>
