<svg width="1440" height="1011" viewBox="0 0 1440 1011" fill="none" xmlns="http://www.w3.org/2000/svg">
<g clip-path="url(#clip0_25_2028)">
<rect width="1440" height="1011" fill="#0C1013"/>
<g opacity="0.25">
<line x1="-50.6172" y1="624.998" x2="1460.96" y2="624.998" stroke="#222020" stroke-width="1.2607"/>
<line x1="-50.6172" y1="947.736" x2="1460.96" y2="947.736" stroke="#222020" stroke-width="1.2607"/>
<line x1="-50.6172" y1="302.259" x2="1460.96" y2="302.259" stroke="#222020" stroke-width="1.2607"/>
<line x1="-50.6172" y1="463.627" x2="1460.96" y2="463.627" stroke="#222020" stroke-width="1.2607"/>
<line x1="-50.6172" y1="786.366" x2="1460.96" y2="786.365" stroke="#222020" stroke-width="1.2607"/>
<line x1="-50.6172" y1="140.889" x2="1460.96" y2="140.889" stroke="#222020" stroke-width="1.2607"/>
<line x1="-50.6172" y1="544.313" x2="1460.96" y2="544.312" stroke="#222020" stroke-width="1.2607"/>
<line x1="-50.6172" y1="867.051" x2="1460.96" y2="867.051" stroke="#222020" stroke-width="1.2607"/>
<line x1="-50.6172" y1="221.574" x2="1460.96" y2="221.574" stroke="#222020" stroke-width="1.2607"/>
<line x1="-50.6172" y1="382.942" x2="1460.96" y2="382.942" stroke="#222020" stroke-width="1.2607"/>
<line x1="-50.6172" y1="705.683" x2="1460.96" y2="705.683" stroke="#222020" stroke-width="1.2607"/>
<line x1="-50.6172" y1="60.2042" x2="1460.96" y2="60.2042" stroke="#222020" stroke-width="1.2607"/>
<line x1="642.139" y1="-48.8453" x2="642.139" y2="1118.56" stroke="#222020" stroke-width="1.2607"/>
<line x1="319.399" y1="-48.8454" x2="319.399" y2="1118.56" stroke="#222020" stroke-width="1.2607"/>
<line x1="964.875" y1="-48.8453" x2="964.875" y2="1118.56" stroke="#222020" stroke-width="1.2607"/>
<line x1="1287.62" y1="-48.8453" x2="1287.62" y2="1118.56" stroke="#222020" stroke-width="1.2607"/>
<line x1="158.028" y1="-48.8453" x2="158.028" y2="1118.56" stroke="#222020" stroke-width="1.2607"/>
<line x1="803.505" y1="-48.8453" x2="803.505" y2="1118.56" stroke="#222020" stroke-width="1.2607"/>
<line x1="480.769" y1="-48.8453" x2="480.769" y2="1118.56" stroke="#222020" stroke-width="1.2607"/>
<line x1="1126.25" y1="-48.8454" x2="1126.25" y2="1118.56" stroke="#222020" stroke-width="1.2607"/>
<line x1="77.3454" y1="-48.8453" x2="77.3454" y2="1118.56" stroke="#222020" stroke-width="1.2607"/>
<line x1="722.822" y1="-48.8454" x2="722.822" y2="1118.56" stroke="#222020" stroke-width="1.2607"/>
<line x1="400.082" y1="-48.8453" x2="400.081" y2="1118.56" stroke="#222020" stroke-width="1.2607"/>
<line x1="1045.56" y1="-48.8453" x2="1045.56" y2="1118.56" stroke="#222020" stroke-width="1.2607"/>
<line x1="1368.3" y1="-48.8453" x2="1368.3" y2="1118.56" stroke="#222020" stroke-width="1.2607"/>
<line x1="238.716" y1="-48.8453" x2="238.716" y2="1118.56" stroke="#222020" stroke-width="1.2607"/>
<line x1="884.192" y1="-48.8453" x2="884.192" y2="1118.56" stroke="#222020" stroke-width="1.2607"/>
<line x1="561.452" y1="-48.8453" x2="561.452" y2="1118.56" stroke="#222020" stroke-width="1.2607"/>
<line x1="1206.93" y1="-48.8453" x2="1206.93" y2="1118.56" stroke="#222020" stroke-width="1.2607"/>
</g>
<g opacity="0.5">
<rect x="803.564" y="786.309" width="80.2262" height="80.2262" fill="#474747" fill-opacity="0.5"/>
<rect x="400.141" y="786.309" width="80.2262" height="80.2262" fill="#3E2A2A" fill-opacity="0.2"/>
<rect x="1126.76" y="222.433" width="80.2262" height="79.0801" fill="#797575" fill-opacity="0.25"/>
<rect x="480.868" y="464.707" width="79.2262" height="78.0801" fill="#DBCCCC" fill-opacity="0.15" stroke="black"/>
<rect x="1045.39" y="302.659" width="80.2262" height="79.0801" fill="#797575" fill-opacity="0.25"/>
<rect x="399.995" y="222.433" width="80.2262" height="79.0801" fill="#DBCCCC" fill-opacity="0.15"/>
<rect x="1045.39" y="222.433" width="80.2262" height="79.0801" fill="#797575" fill-opacity="0.25"/>
<rect x="399.995" y="464.207" width="80.2262" height="79.0801" fill="#DBCCCC" fill-opacity="0.15"/>
<rect x="319.914" y="786.309" width="80.2262" height="80.2262" fill="#3E2A2A" fill-opacity="0.2"/>
<rect x="319.914" y="866.535" width="80.2262" height="81.3723" fill="#3E2A2A" fill-opacity="0.2"/>
<rect x="158.316" y="706.082" width="80.2262" height="80.2262" fill="#3E2A2A" fill-opacity="0.2"/>
<rect x="965.162" y="60.8344" width="80.2262" height="80.2262" fill="#DBCCCC" fill-opacity="0.15"/>
<rect x="884.059" y="-19.8526" width="80.2262" height="79.5062" fill="#DBCCCC" fill-opacity="0.15"/>
<rect x="884.059" y="60.4052" width="80.2262" height="80.0285" fill="#DBCCCC" fill-opacity="0.15"/>
<rect x="158.316" y="139.915" width="81.3723" height="82.5184" fill="#3E2A2A" fill-opacity="0.2"/>
<rect x="76.9436" y="59.6883" width="81.3723" height="80.2262" fill="#3E2A2A" fill-opacity="0.2"/>
<rect x="-3.28271" y="60.8344" width="81.3723" height="80.2262" fill="#3E2A2A" fill-opacity="0.2"/>
<rect x="76.9436" y="139.915" width="81.3723" height="82.5184" fill="#3E2A2A" fill-opacity="0.2"/>
<rect x="400.141" y="-20.5378" width="81.3723" height="80.2262" fill="#797575" fill-opacity="0.25"/>
<rect x="158.316" y="301.513" width="80.2262" height="81.3723" fill="#3E2A2A" fill-opacity="0.2"/>
<rect x="1126.76" y="706.082" width="80.2262" height="80.2262" fill="#DBCCCC" fill-opacity="0.15"/>
<rect x="1206.99" y="786.309" width="80.2262" height="80.2262" fill="#DBCCCC" fill-opacity="0.15"/>
</g>
</g>
<defs>
<clipPath id="clip0_25_2028">
<rect width="1440" height="1011" fill="white"/>
</clipPath>
</defs>
</svg>
