<svg width="384" height="318" viewBox="0 0 384 318" fill="none" xmlns="http://www.w3.org/2000/svg">
<g filter="url(#filter0_b_1501_2)">
<rect x="1" y="1" width="462" height="338" rx="24" fill="url(#paint0_linear_1501_2)" fill-opacity="0.4"/>
<rect x="1" y="1" width="462" height="338" rx="24" stroke="url(#paint1_linear_1501_2)" stroke-width="1.5"/>
</g>
<path d="M1 44L373 44" stroke="white" stroke-opacity="0.1"/>
<circle cx="30.9524" cy="22.9524" r="5.95238" fill="#FF5F57"/>
<circle cx="49.9993" cy="22.9524" r="5.95238" fill="#FEBC2E"/>
<circle cx="69.0481" cy="22.9524" r="5.95238" fill="#27C83F"/>
<g filter="url(#filter1_b_1501_2)">
<rect x="93" y="13" width="278" height="20" rx="10" fill="white" fill-opacity="0.2"/>
</g>
<path d="M103.43 28.7676C103.515 28.7676 103.654 28.7356 103.787 28.661C106.82 26.9605 107.859 26.2409 107.859 24.2953V20.2175C107.859 19.6578 107.619 19.4819 107.166 19.29C106.537 19.0288 104.506 18.2985 103.877 18.08C103.733 18.032 103.579 18 103.43 18C103.28 18 103.126 18.0426 102.987 18.08C102.358 18.2612 100.322 19.0341 99.693 19.29C99.2452 19.4765 99 19.6578 99 20.2175V24.2953C99 26.2409 100.045 26.9552 103.072 28.661C103.211 28.7356 103.344 28.7676 103.43 28.7676ZM103.643 18.9062C104.448 19.226 106.01 19.791 106.836 20.0736C106.98 20.1269 107.012 20.2015 107.012 20.3827V24.0981C107.012 25.7452 106.223 26.177 103.76 27.6748C103.606 27.7708 103.52 27.7974 103.435 27.8028V18.8582C103.488 18.8582 103.558 18.8742 103.643 18.9062Z" fill="white"/>
<path d="M185.291 25H184.611L183.271 21H183.927L184.959 24.052L185.979 21H186.671L187.695 24.052L188.715 21H189.379L188.039 25H187.355L186.319 21.92L185.291 25ZM191.822 25H191.143L189.803 21H190.459L191.491 24.052L192.511 21H193.203L194.227 24.052L195.247 21H195.911L194.571 25H193.887L192.851 21.92L191.822 25ZM198.354 25H197.674L196.334 21H196.99L198.022 24.052L199.042 21H199.734L200.758 24.052L201.778 21H202.442L201.102 25H200.418L199.382 21.92L198.354 25ZM203.059 25.104C202.958 25.104 202.871 25.068 202.799 24.996C202.73 24.924 202.695 24.836 202.695 24.732C202.695 24.6333 202.73 24.548 202.799 24.476C202.871 24.404 202.958 24.368 203.059 24.368C203.163 24.368 203.251 24.404 203.323 24.476C203.395 24.548 203.431 24.6333 203.431 24.732C203.431 24.836 203.395 24.924 203.323 24.996C203.251 25.068 203.163 25.104 203.059 25.104ZM207.93 22.512V25H207.258V22.66C207.258 22.4573 207.209 22.2733 207.11 22.108C207.011 21.9427 206.879 21.812 206.714 21.716C206.549 21.6173 206.365 21.568 206.162 21.568C205.962 21.568 205.778 21.6173 205.61 21.716C205.445 21.812 205.313 21.9427 205.214 22.108C205.115 22.2733 205.066 22.4573 205.066 22.66V25H204.394V21H205.066V21.5C205.207 21.3133 205.386 21.1653 205.602 21.056C205.818 20.944 206.053 20.888 206.306 20.888C206.605 20.888 206.877 20.9613 207.122 21.108C207.37 21.252 207.566 21.4467 207.71 21.692C207.857 21.9373 207.93 22.2107 207.93 22.512ZM210.412 25.104C210.044 25.104 209.708 25.0093 209.404 24.82C209.103 24.6307 208.861 24.3773 208.68 24.06C208.501 23.74 208.412 23.3867 208.412 23C208.412 22.7067 208.464 22.4333 208.568 22.18C208.672 21.924 208.815 21.7 208.996 21.508C209.18 21.3133 209.393 21.1613 209.636 21.052C209.879 20.9427 210.137 20.888 210.412 20.888C210.78 20.888 211.115 20.9827 211.416 21.172C211.72 21.3613 211.961 21.616 212.14 21.936C212.321 22.256 212.412 22.6107 212.412 23C212.412 23.2907 212.36 23.5627 212.256 23.816C212.152 24.0693 212.008 24.2933 211.824 24.488C211.643 24.68 211.431 24.8307 211.188 24.94C210.948 25.0493 210.689 25.104 210.412 25.104ZM210.412 24.432C210.663 24.432 210.888 24.3667 211.088 24.236C211.291 24.1027 211.449 23.928 211.564 23.712C211.681 23.4933 211.74 23.256 211.74 23C211.74 22.7387 211.68 22.4987 211.56 22.28C211.443 22.0613 211.284 21.8867 211.084 21.756C210.884 21.6253 210.66 21.56 210.412 21.56C210.161 21.56 209.936 21.6267 209.736 21.76C209.536 21.8907 209.377 22.0653 209.26 22.284C209.143 22.5027 209.084 22.7413 209.084 23C209.084 23.2667 209.144 23.5093 209.264 23.728C209.384 23.944 209.545 24.116 209.748 24.244C209.951 24.3693 210.172 24.432 210.412 24.432ZM214.982 25H214.122L212.662 20.992H213.378L214.55 24.22L215.722 20.992H216.438L214.982 25ZM220.149 21H220.821V25H220.149L220.121 24.324C219.996 24.556 219.822 24.744 219.601 24.888C219.382 25.032 219.121 25.104 218.817 25.104C218.524 25.104 218.249 25.0493 217.993 24.94C217.737 24.828 217.51 24.6747 217.313 24.48C217.118 24.2827 216.966 24.056 216.857 23.8C216.748 23.544 216.693 23.268 216.693 22.972C216.693 22.6867 216.746 22.4173 216.853 22.164C216.96 21.9107 217.108 21.6893 217.297 21.5C217.489 21.308 217.71 21.1587 217.961 21.052C218.212 20.9427 218.481 20.888 218.769 20.888C219.084 20.888 219.36 20.9627 219.597 21.112C219.834 21.2587 220.026 21.4493 220.173 21.684L220.149 21ZM218.805 24.452C219.069 24.452 219.297 24.388 219.489 24.26C219.684 24.1293 219.833 23.9533 219.937 23.732C220.044 23.5107 220.097 23.2667 220.097 23C220.097 22.728 220.044 22.4827 219.937 22.264C219.83 22.0427 219.68 21.868 219.485 21.74C219.293 21.6093 219.066 21.544 218.805 21.544C218.541 21.544 218.301 21.6093 218.085 21.74C217.869 21.8707 217.697 22.0467 217.569 22.268C217.444 22.4867 217.381 22.7307 217.381 23C217.381 23.2693 217.446 23.5147 217.577 23.736C217.708 23.9547 217.881 24.1293 218.097 24.26C218.313 24.388 218.549 24.452 218.805 24.452ZM221.621 21H222.293V25H221.621V21ZM221.965 20.348C221.858 20.348 221.769 20.3133 221.697 20.244C221.625 20.1747 221.589 20.088 221.589 19.984C221.589 19.88 221.625 19.7933 221.697 19.724C221.769 19.6547 221.857 19.62 221.961 19.62C222.065 19.62 222.153 19.6547 222.225 19.724C222.297 19.7933 222.333 19.88 222.333 19.984C222.333 20.088 222.297 20.1747 222.225 20.244C222.155 20.3133 222.069 20.348 221.965 20.348ZM223.23 25V21H223.902V21.5C224.043 21.3133 224.221 21.1653 224.434 21.056C224.65 20.944 224.885 20.888 225.138 20.888C225.434 20.888 225.705 20.96 225.95 21.104C226.195 21.248 226.389 21.4387 226.53 21.676C226.671 21.4387 226.863 21.248 227.106 21.104C227.351 20.96 227.621 20.888 227.914 20.888C228.215 20.888 228.489 20.9613 228.734 21.108C228.979 21.252 229.174 21.4467 229.318 21.692C229.465 21.9373 229.538 22.2107 229.538 22.512V25H228.866V22.672C228.866 22.4747 228.818 22.292 228.722 22.124C228.626 21.956 228.497 21.8213 228.334 21.72C228.171 21.6187 227.991 21.568 227.794 21.568C227.597 21.568 227.417 21.616 227.254 21.712C227.091 21.8053 226.962 21.936 226.866 22.104C226.77 22.2693 226.722 22.4587 226.722 22.672V25H226.05V22.672C226.05 22.4587 226.002 22.2693 225.906 22.104C225.81 21.936 225.679 21.8053 225.514 21.712C225.351 21.616 225.171 21.568 224.974 21.568C224.779 21.568 224.599 21.6187 224.434 21.72C224.271 21.8213 224.142 21.956 224.046 22.124C223.95 22.292 223.902 22.4747 223.902 22.672V25H223.23ZM233.477 21H234.149V25H233.477L233.449 24.324C233.324 24.556 233.151 24.744 232.929 24.888C232.711 25.032 232.449 25.104 232.145 25.104C231.852 25.104 231.577 25.0493 231.321 24.94C231.065 24.828 230.839 24.6747 230.641 24.48C230.447 24.2827 230.295 24.056 230.185 23.8C230.076 23.544 230.021 23.268 230.021 22.972C230.021 22.6867 230.075 22.4173 230.181 22.164C230.288 21.9107 230.436 21.6893 230.625 21.5C230.817 21.308 231.039 21.1587 231.289 21.052C231.54 20.9427 231.809 20.888 232.097 20.888C232.412 20.888 232.688 20.9627 232.925 21.112C233.163 21.2587 233.355 21.4493 233.501 21.684L233.477 21ZM232.133 24.452C232.397 24.452 232.625 24.388 232.817 24.26C233.012 24.1293 233.161 23.9533 233.265 23.732C233.372 23.5107 233.425 23.2667 233.425 23C233.425 22.728 233.372 22.4827 233.265 22.264C233.159 22.0427 233.008 21.868 232.813 21.74C232.621 21.6093 232.395 21.544 232.133 21.544C231.869 21.544 231.629 21.6093 231.413 21.74C231.197 21.8707 231.025 22.0467 230.897 22.268C230.772 22.4867 230.709 22.7307 230.709 23C230.709 23.2693 230.775 23.5147 230.905 23.736C231.036 23.9547 231.209 24.1293 231.425 24.26C231.641 24.388 231.877 24.452 232.133 24.452ZM237.995 21H238.667V25.128C238.667 25.392 238.609 25.6373 238.495 25.864C238.383 26.0933 238.231 26.292 238.039 26.46C237.847 26.6307 237.628 26.7627 237.383 26.856C237.137 26.952 236.881 27 236.615 27C236.337 27 236.069 26.9373 235.811 26.812C235.552 26.6893 235.325 26.524 235.131 26.316C234.939 26.1107 234.8 25.88 234.715 25.624L235.331 25.344C235.381 25.528 235.472 25.6933 235.603 25.84C235.736 25.9893 235.891 26.1067 236.067 26.192C236.245 26.28 236.428 26.324 236.615 26.324C236.791 26.324 236.96 26.2933 237.123 26.232C237.288 26.1707 237.436 26.0853 237.567 25.976C237.7 25.8693 237.804 25.7427 237.879 25.596C237.956 25.452 237.995 25.296 237.995 25.128V24.332C237.859 24.5613 237.679 24.748 237.455 24.892C237.233 25.0333 236.975 25.104 236.679 25.104C236.396 25.104 236.131 25.0493 235.883 24.94C235.635 24.8307 235.417 24.68 235.231 24.488C235.044 24.2933 234.897 24.0693 234.791 23.816C234.684 23.5627 234.631 23.2907 234.631 23C234.631 22.7093 234.684 22.4373 234.791 22.184C234.897 21.928 235.044 21.704 235.231 21.512C235.417 21.3173 235.635 21.1653 235.883 21.056C236.131 20.9467 236.396 20.892 236.679 20.892C236.975 20.892 237.233 20.9627 237.455 21.104C237.679 21.2453 237.859 21.432 237.995 21.664V21ZM236.683 24.452C236.941 24.452 237.165 24.3853 237.355 24.252C237.547 24.1187 237.695 23.9413 237.799 23.72C237.903 23.4987 237.955 23.2587 237.955 23C237.955 22.7333 237.901 22.4907 237.795 22.272C237.691 22.0507 237.543 21.8747 237.351 21.744C237.161 21.6107 236.939 21.544 236.683 21.544C236.432 21.544 236.203 21.6093 235.995 21.74C235.787 21.8707 235.621 22.0467 235.499 22.268C235.379 22.4867 235.319 22.7307 235.319 23C235.319 23.2693 235.38 23.5147 235.503 23.736C235.628 23.9547 235.793 24.1293 235.999 24.26C236.207 24.388 236.435 24.452 236.683 24.452ZM241.334 25.104C240.966 25.104 240.63 25.0093 240.326 24.82C240.024 24.6307 239.783 24.3773 239.602 24.06C239.423 23.74 239.334 23.3867 239.334 23C239.334 22.7067 239.386 22.4333 239.49 22.18C239.594 21.924 239.736 21.7 239.918 21.508C240.102 21.3133 240.315 21.1613 240.558 21.052C240.8 20.9427 241.059 20.888 241.334 20.888C241.635 20.888 241.911 20.9493 242.162 21.072C242.415 21.192 242.631 21.36 242.81 21.576C242.991 21.792 243.126 22.0427 243.214 22.328C243.304 22.6133 243.338 22.9187 243.314 23.244H240.05C240.082 23.4707 240.156 23.6733 240.274 23.852C240.391 24.028 240.54 24.168 240.722 24.272C240.906 24.376 241.11 24.4293 241.334 24.432C241.574 24.432 241.791 24.3707 241.986 24.248C242.18 24.1227 242.338 23.952 242.458 23.736L243.142 23.896C242.982 24.2507 242.74 24.5413 242.418 24.768C242.095 24.992 241.734 25.104 241.334 25.104ZM240.03 22.716H242.638C242.616 22.492 242.544 22.288 242.422 22.104C242.299 21.9173 242.143 21.768 241.954 21.656C241.764 21.544 241.558 21.488 241.334 21.488C241.11 21.488 240.904 21.5427 240.718 21.652C240.531 21.7613 240.376 21.9093 240.254 22.096C240.134 22.28 240.059 22.4867 240.03 22.716ZM244.168 25.104C244.067 25.104 243.98 25.068 243.908 24.996C243.839 24.924 243.804 24.836 243.804 24.732C243.804 24.6333 243.839 24.548 243.908 24.476C243.98 24.404 244.067 24.368 244.168 24.368C244.272 24.368 244.36 24.404 244.432 24.476C244.504 24.548 244.54 24.6333 244.54 24.732C244.54 24.836 244.504 24.924 244.432 24.996C244.36 25.068 244.272 25.104 244.168 25.104ZM247.583 25H246.723L245.263 20.992H245.979L247.151 24.22L248.323 20.992H249.039L247.583 25ZM251.295 25.104C250.927 25.104 250.591 25.0093 250.287 24.82C249.985 24.6307 249.744 24.3773 249.563 24.06C249.384 23.74 249.295 23.3867 249.295 23C249.295 22.7067 249.347 22.4333 249.451 22.18C249.555 21.924 249.697 21.7 249.879 21.508C250.063 21.3133 250.276 21.1613 250.519 21.052C250.761 20.9427 251.02 20.888 251.295 20.888C251.596 20.888 251.872 20.9493 252.123 21.072C252.376 21.192 252.592 21.36 252.771 21.576C252.952 21.792 253.087 22.0427 253.175 22.328C253.265 22.6133 253.299 22.9187 253.275 23.244H250.011C250.043 23.4707 250.117 23.6733 250.235 23.852C250.352 24.028 250.501 24.168 250.683 24.272C250.867 24.376 251.071 24.4293 251.295 24.432C251.535 24.432 251.752 24.3707 251.947 24.248C252.141 24.1227 252.299 23.952 252.419 23.736L253.103 23.896C252.943 24.2507 252.701 24.5413 252.379 24.768C252.056 24.992 251.695 25.104 251.295 25.104ZM249.991 22.716H252.599C252.577 22.492 252.505 22.288 252.383 22.104C252.26 21.9173 252.104 21.768 251.915 21.656C251.725 21.544 251.519 21.488 251.295 21.488C251.071 21.488 250.865 21.5427 250.679 21.652C250.492 21.7613 250.337 21.9093 250.215 22.096C250.095 22.28 250.02 22.4867 249.991 22.716ZM253.949 25V21H254.621V21.5C254.762 21.3133 254.941 21.1653 255.157 21.056C255.373 20.944 255.607 20.888 255.861 20.888C256.015 20.888 256.165 20.908 256.309 20.948L256.037 21.62C255.927 21.5853 255.821 21.568 255.717 21.568C255.517 21.568 255.333 21.6173 255.165 21.716C254.999 21.812 254.867 21.9427 254.769 22.108C254.67 22.2733 254.621 22.4573 254.621 22.66V25H253.949ZM259.353 23.944L259.953 24.268C259.772 24.5213 259.541 24.724 259.261 24.876C258.984 25.028 258.683 25.104 258.357 25.104C257.989 25.104 257.653 25.0093 257.349 24.82C257.048 24.6307 256.807 24.3773 256.625 24.06C256.447 23.74 256.357 23.3867 256.357 23C256.357 22.7067 256.409 22.4333 256.513 22.18C256.617 21.924 256.76 21.7 256.941 21.508C257.125 21.3133 257.339 21.1613 257.581 21.052C257.824 20.9427 258.083 20.888 258.357 20.888C258.683 20.888 258.984 20.964 259.261 21.116C259.541 21.268 259.772 21.472 259.953 21.728L259.353 22.052C259.225 21.8947 259.073 21.7733 258.897 21.688C258.721 21.6027 258.541 21.56 258.357 21.56C258.109 21.56 257.884 21.6267 257.681 21.76C257.481 21.8907 257.323 22.0653 257.205 22.284C257.088 22.5027 257.029 22.7413 257.029 23C257.029 23.2587 257.088 23.4973 257.205 23.716C257.325 23.932 257.485 24.1053 257.685 24.236C257.888 24.3667 258.112 24.432 258.357 24.432C258.555 24.432 258.74 24.3867 258.913 24.296C259.087 24.2053 259.233 24.088 259.353 23.944ZM262.365 25.104C261.997 25.104 261.661 25.0093 261.357 24.82C261.056 24.6307 260.814 24.3773 260.633 24.06C260.454 23.74 260.365 23.3867 260.365 23C260.365 22.7067 260.417 22.4333 260.521 22.18C260.625 21.924 260.768 21.7 260.949 21.508C261.133 21.3133 261.346 21.1613 261.589 21.052C261.832 20.9427 262.09 20.888 262.365 20.888C262.666 20.888 262.942 20.9493 263.193 21.072C263.446 21.192 263.662 21.36 263.841 21.576C264.022 21.792 264.157 22.0427 264.245 22.328C264.336 22.6133 264.369 22.9187 264.345 23.244H261.081C261.113 23.4707 261.188 23.6733 261.305 23.852C261.422 24.028 261.572 24.168 261.753 24.272C261.937 24.376 262.141 24.4293 262.365 24.432C262.605 24.432 262.822 24.3707 263.017 24.248C263.212 24.1227 263.369 23.952 263.489 23.736L264.173 23.896C264.013 24.2507 263.772 24.5413 263.449 24.768C263.126 24.992 262.765 25.104 262.365 25.104ZM261.061 22.716H263.669C263.648 22.492 263.576 22.288 263.453 22.104C263.33 21.9173 263.174 21.768 262.985 21.656C262.796 21.544 262.589 21.488 262.365 21.488C262.141 21.488 261.936 21.5427 261.749 21.652C261.562 21.7613 261.408 21.9093 261.285 22.096C261.165 22.28 261.09 22.4867 261.061 22.716ZM264.98 25V19H265.652V25H264.98ZM266.817 25.104C266.715 25.104 266.629 25.068 266.557 24.996C266.487 24.924 266.453 24.836 266.453 24.732C266.453 24.6333 266.487 24.548 266.557 24.476C266.629 24.404 266.715 24.368 266.817 24.368C266.921 24.368 267.009 24.404 267.081 24.476C267.153 24.548 267.189 24.6333 267.189 24.732C267.189 24.836 267.153 24.924 267.081 24.996C267.009 25.068 266.921 25.104 266.817 25.104ZM271.329 21H272.001V25H271.329L271.301 24.324C271.175 24.556 271.002 24.744 270.781 24.888C270.562 25.032 270.301 25.104 269.997 25.104C269.703 25.104 269.429 25.0493 269.173 24.94C268.917 24.828 268.69 24.6747 268.493 24.48C268.298 24.2827 268.146 24.056 268.037 23.8C267.927 23.544 267.873 23.268 267.873 22.972C267.873 22.6867 267.926 22.4173 268.033 22.164C268.139 21.9107 268.287 21.6893 268.477 21.5C268.669 21.308 268.89 21.1587 269.141 21.052C269.391 20.9427 269.661 20.888 269.949 20.888C270.263 20.888 270.539 20.9627 270.777 21.112C271.014 21.2587 271.206 21.4493 271.353 21.684L271.329 21ZM269.985 24.452C270.249 24.452 270.477 24.388 270.669 24.26C270.863 24.1293 271.013 23.9533 271.117 23.732C271.223 23.5107 271.277 23.2667 271.277 23C271.277 22.728 271.223 22.4827 271.117 22.264C271.01 22.0427 270.859 21.868 270.665 21.74C270.473 21.6093 270.246 21.544 269.985 21.544C269.721 21.544 269.481 21.6093 269.265 21.74C269.049 21.8707 268.877 22.0467 268.749 22.268C268.623 22.4867 268.561 22.7307 268.561 23C268.561 23.2693 268.626 23.5147 268.757 23.736C268.887 23.9547 269.061 24.1293 269.277 24.26C269.493 24.388 269.729 24.452 269.985 24.452ZM273.472 27H272.8V21H273.472V21.684C273.608 21.4493 273.79 21.26 274.016 21.116C274.243 20.9693 274.512 20.896 274.824 20.896C275.115 20.896 275.387 20.9507 275.64 21.06C275.896 21.1693 276.12 21.3213 276.312 21.516C276.504 21.708 276.655 21.9307 276.764 22.184C276.874 22.4373 276.928 22.7093 276.928 23C276.928 23.2907 276.874 23.564 276.764 23.82C276.655 24.076 276.504 24.3013 276.312 24.496C276.12 24.688 275.896 24.8387 275.64 24.948C275.387 25.0573 275.115 25.112 274.824 25.112C274.512 25.112 274.243 25.04 274.016 24.896C273.79 24.7493 273.608 24.5587 273.472 24.324V27ZM274.816 21.548C274.558 21.548 274.331 21.6133 274.136 21.744C273.942 21.8747 273.791 22.0493 273.684 22.268C273.58 22.4867 273.528 22.7307 273.528 23C273.528 23.2667 273.58 23.5107 273.684 23.732C273.791 23.9533 273.94 24.1293 274.132 24.26C274.327 24.3907 274.555 24.456 274.816 24.456C275.075 24.456 275.312 24.392 275.528 24.264C275.744 24.1333 275.918 23.9587 276.048 23.74C276.179 23.5187 276.244 23.272 276.244 23C276.244 22.7333 276.18 22.4907 276.052 22.272C275.924 22.0507 275.752 21.8747 275.536 21.744C275.32 21.6133 275.08 21.548 274.816 21.548ZM278.269 27H277.597V21H278.269V21.684C278.405 21.4493 278.587 21.26 278.813 21.116C279.04 20.9693 279.309 20.896 279.621 20.896C279.912 20.896 280.184 20.9507 280.437 21.06C280.693 21.1693 280.917 21.3213 281.109 21.516C281.301 21.708 281.452 21.9307 281.561 22.184C281.671 22.4373 281.725 22.7093 281.725 23C281.725 23.2907 281.671 23.564 281.561 23.82C281.452 24.076 281.301 24.3013 281.109 24.496C280.917 24.688 280.693 24.8387 280.437 24.948C280.184 25.0573 279.912 25.112 279.621 25.112C279.309 25.112 279.04 25.04 278.813 24.896C278.587 24.7493 278.405 24.5587 278.269 24.324V27ZM279.613 21.548C279.355 21.548 279.128 21.6133 278.933 21.744C278.739 21.8747 278.588 22.0493 278.481 22.268C278.377 22.4867 278.325 22.7307 278.325 23C278.325 23.2667 278.377 23.5107 278.481 23.732C278.588 23.9533 278.737 24.1293 278.929 24.26C279.124 24.3907 279.352 24.456 279.613 24.456C279.872 24.456 280.109 24.392 280.325 24.264C280.541 24.1333 280.715 23.9587 280.845 23.74C280.976 23.5187 281.041 23.272 281.041 23C281.041 22.7333 280.977 22.4907 280.849 22.272C280.721 22.0507 280.549 21.8747 280.333 21.744C280.117 21.6133 279.877 21.548 279.613 21.548Z" fill="white"/>
<g filter="url(#filter2_b_1501_2)">
<rect x="25.498" y="61" width="26" height="258" rx="12" fill="white" fill-opacity="0.25"/>
</g>
<g filter="url(#filter3_b_1501_2)">
<rect x="56" y="61" width="89" height="258" rx="10" fill="white" fill-opacity="0.25"/>
</g>
<g filter="url(#filter4_b_1501_2)">
<rect x="63" y="91" width="75" height="17" rx="4" fill="white" fill-opacity="0.25"/>
</g>
<g filter="url(#filter5_b_1501_2)">
<rect x="63" y="114" width="75" height="17" rx="4" fill="white" fill-opacity="0.25"/>
</g>
<g filter="url(#filter6_b_1501_2)">
<rect x="63" y="137" width="39" height="17" rx="4" fill="white" fill-opacity="0.25"/>
</g>
<g filter="url(#filter7_b_1501_2)">
<rect x="109" y="137" width="29" height="17" rx="4" fill="white" fill-opacity="0.25"/>
</g>
<g filter="url(#filter8_b_1501_2)">
<rect x="30" y="91" width="17" height="17" rx="8.5" fill="white" fill-opacity="0.25"/>
</g>
<g filter="url(#filter9_b_1501_2)">
<rect x="30" y="116" width="17" height="17" rx="8.5" fill="white" fill-opacity="0.25"/>
</g>
<g filter="url(#filter10_b_1501_2)">
<rect x="30" y="141" width="17" height="17" rx="8.5" fill="white" fill-opacity="0.25"/>
</g>
<g filter="url(#filter11_b_1501_2)">
<rect x="30" y="166" width="17" height="17" rx="8.5" fill="white" fill-opacity="0.25"/>
</g>
<g filter="url(#filter12_b_1501_2)">
<rect x="63" y="290" width="75" height="17" rx="4" fill="white" fill-opacity="0.25"/>
</g>
<g filter="url(#filter13_b_1501_2)">
<rect x="151" y="60" width="239" height="258" rx="10" fill="white" fill-opacity="0.25"/>
</g>
<g filter="url(#filter14_b_1501_2)">
<rect x="173" y="94" width="217" height="191" rx="10" fill="white" fill-opacity="0.25"/>
</g>
<defs>
<filter id="filter0_b_1501_2" x="-14.75" y="-14.75" width="493.5" height="369.5" filterUnits="userSpaceOnUse" color-interpolation-filters="sRGB">
<feFlood flood-opacity="0" result="BackgroundImageFix"/>
<feGaussianBlur in="BackgroundImageFix" stdDeviation="7.5"/>
<feComposite in2="SourceAlpha" operator="in" result="effect1_backgroundBlur_1501_2"/>
<feBlend mode="normal" in="SourceGraphic" in2="effect1_backgroundBlur_1501_2" result="shape"/>
</filter>
<filter id="filter1_b_1501_2" x="78" y="-2" width="308" height="50" filterUnits="userSpaceOnUse" color-interpolation-filters="sRGB">
<feFlood flood-opacity="0" result="BackgroundImageFix"/>
<feGaussianBlur in="BackgroundImageFix" stdDeviation="7.5"/>
<feComposite in2="SourceAlpha" operator="in" result="effect1_backgroundBlur_1501_2"/>
<feBlend mode="normal" in="SourceGraphic" in2="effect1_backgroundBlur_1501_2" result="shape"/>
</filter>
<filter id="filter2_b_1501_2" x="10.498" y="46" width="56" height="288" filterUnits="userSpaceOnUse" color-interpolation-filters="sRGB">
<feFlood flood-opacity="0" result="BackgroundImageFix"/>
<feGaussianBlur in="BackgroundImageFix" stdDeviation="7.5"/>
<feComposite in2="SourceAlpha" operator="in" result="effect1_backgroundBlur_1501_2"/>
<feBlend mode="normal" in="SourceGraphic" in2="effect1_backgroundBlur_1501_2" result="shape"/>
</filter>
<filter id="filter3_b_1501_2" x="41" y="46" width="119" height="288" filterUnits="userSpaceOnUse" color-interpolation-filters="sRGB">
<feFlood flood-opacity="0" result="BackgroundImageFix"/>
<feGaussianBlur in="BackgroundImageFix" stdDeviation="7.5"/>
<feComposite in2="SourceAlpha" operator="in" result="effect1_backgroundBlur_1501_2"/>
<feBlend mode="normal" in="SourceGraphic" in2="effect1_backgroundBlur_1501_2" result="shape"/>
</filter>
<filter id="filter4_b_1501_2" x="48" y="76" width="105" height="47" filterUnits="userSpaceOnUse" color-interpolation-filters="sRGB">
<feFlood flood-opacity="0" result="BackgroundImageFix"/>
<feGaussianBlur in="BackgroundImageFix" stdDeviation="7.5"/>
<feComposite in2="SourceAlpha" operator="in" result="effect1_backgroundBlur_1501_2"/>
<feBlend mode="normal" in="SourceGraphic" in2="effect1_backgroundBlur_1501_2" result="shape"/>
</filter>
<filter id="filter5_b_1501_2" x="48" y="99" width="105" height="47" filterUnits="userSpaceOnUse" color-interpolation-filters="sRGB">
<feFlood flood-opacity="0" result="BackgroundImageFix"/>
<feGaussianBlur in="BackgroundImageFix" stdDeviation="7.5"/>
<feComposite in2="SourceAlpha" operator="in" result="effect1_backgroundBlur_1501_2"/>
<feBlend mode="normal" in="SourceGraphic" in2="effect1_backgroundBlur_1501_2" result="shape"/>
</filter>
<filter id="filter6_b_1501_2" x="48" y="122" width="69" height="47" filterUnits="userSpaceOnUse" color-interpolation-filters="sRGB">
<feFlood flood-opacity="0" result="BackgroundImageFix"/>
<feGaussianBlur in="BackgroundImageFix" stdDeviation="7.5"/>
<feComposite in2="SourceAlpha" operator="in" result="effect1_backgroundBlur_1501_2"/>
<feBlend mode="normal" in="SourceGraphic" in2="effect1_backgroundBlur_1501_2" result="shape"/>
</filter>
<filter id="filter7_b_1501_2" x="94" y="122" width="59" height="47" filterUnits="userSpaceOnUse" color-interpolation-filters="sRGB">
<feFlood flood-opacity="0" result="BackgroundImageFix"/>
<feGaussianBlur in="BackgroundImageFix" stdDeviation="7.5"/>
<feComposite in2="SourceAlpha" operator="in" result="effect1_backgroundBlur_1501_2"/>
<feBlend mode="normal" in="SourceGraphic" in2="effect1_backgroundBlur_1501_2" result="shape"/>
</filter>
<filter id="filter8_b_1501_2" x="15" y="76" width="47" height="47" filterUnits="userSpaceOnUse" color-interpolation-filters="sRGB">
<feFlood flood-opacity="0" result="BackgroundImageFix"/>
<feGaussianBlur in="BackgroundImageFix" stdDeviation="7.5"/>
<feComposite in2="SourceAlpha" operator="in" result="effect1_backgroundBlur_1501_2"/>
<feBlend mode="normal" in="SourceGraphic" in2="effect1_backgroundBlur_1501_2" result="shape"/>
</filter>
<filter id="filter9_b_1501_2" x="15" y="101" width="47" height="47" filterUnits="userSpaceOnUse" color-interpolation-filters="sRGB">
<feFlood flood-opacity="0" result="BackgroundImageFix"/>
<feGaussianBlur in="BackgroundImageFix" stdDeviation="7.5"/>
<feComposite in2="SourceAlpha" operator="in" result="effect1_backgroundBlur_1501_2"/>
<feBlend mode="normal" in="SourceGraphic" in2="effect1_backgroundBlur_1501_2" result="shape"/>
</filter>
<filter id="filter10_b_1501_2" x="15" y="126" width="47" height="47" filterUnits="userSpaceOnUse" color-interpolation-filters="sRGB">
<feFlood flood-opacity="0" result="BackgroundImageFix"/>
<feGaussianBlur in="BackgroundImageFix" stdDeviation="7.5"/>
<feComposite in2="SourceAlpha" operator="in" result="effect1_backgroundBlur_1501_2"/>
<feBlend mode="normal" in="SourceGraphic" in2="effect1_backgroundBlur_1501_2" result="shape"/>
</filter>
<filter id="filter11_b_1501_2" x="15" y="151" width="47" height="47" filterUnits="userSpaceOnUse" color-interpolation-filters="sRGB">
<feFlood flood-opacity="0" result="BackgroundImageFix"/>
<feGaussianBlur in="BackgroundImageFix" stdDeviation="7.5"/>
<feComposite in2="SourceAlpha" operator="in" result="effect1_backgroundBlur_1501_2"/>
<feBlend mode="normal" in="SourceGraphic" in2="effect1_backgroundBlur_1501_2" result="shape"/>
</filter>
<filter id="filter12_b_1501_2" x="48" y="275" width="105" height="47" filterUnits="userSpaceOnUse" color-interpolation-filters="sRGB">
<feFlood flood-opacity="0" result="BackgroundImageFix"/>
<feGaussianBlur in="BackgroundImageFix" stdDeviation="7.5"/>
<feComposite in2="SourceAlpha" operator="in" result="effect1_backgroundBlur_1501_2"/>
<feBlend mode="normal" in="SourceGraphic" in2="effect1_backgroundBlur_1501_2" result="shape"/>
</filter>
<filter id="filter13_b_1501_2" x="136" y="45" width="269" height="288" filterUnits="userSpaceOnUse" color-interpolation-filters="sRGB">
<feFlood flood-opacity="0" result="BackgroundImageFix"/>
<feGaussianBlur in="BackgroundImageFix" stdDeviation="7.5"/>
<feComposite in2="SourceAlpha" operator="in" result="effect1_backgroundBlur_1501_2"/>
<feBlend mode="normal" in="SourceGraphic" in2="effect1_backgroundBlur_1501_2" result="shape"/>
</filter>
<filter id="filter14_b_1501_2" x="158" y="79" width="247" height="221" filterUnits="userSpaceOnUse" color-interpolation-filters="sRGB">
<feFlood flood-opacity="0" result="BackgroundImageFix"/>
<feGaussianBlur in="BackgroundImageFix" stdDeviation="7.5"/>
<feComposite in2="SourceAlpha" operator="in" result="effect1_backgroundBlur_1501_2"/>
<feBlend mode="normal" in="SourceGraphic" in2="effect1_backgroundBlur_1501_2" result="shape"/>
</filter>
<linearGradient id="paint0_linear_1501_2" x1="10" y1="10.5" x2="310" y2="310.5" gradientUnits="userSpaceOnUse">
<stop stop-color="white"/>
<stop offset="0.575256" stop-color="white" stop-opacity="0.111467"/>
<stop offset="1" stop-color="white" stop-opacity="0"/>
</linearGradient>
<linearGradient id="paint1_linear_1501_2" x1="7.5" y1="11" x2="116" y2="170" gradientUnits="userSpaceOnUse">
<stop stop-color="white"/>
<stop offset="1" stop-color="white" stop-opacity="0"/>
</linearGradient>
</defs>
</svg>
